<svg width="25" height="24" viewBox="0 0 25 24" fill="none" xmlns="http://www.w3.org/2000/svg">
    <path d="M10.79 3.86002L2.32002 18C2.14539 18.3024 2.05299 18.6453 2.05201 18.9945C2.05103 19.3438 2.14151 19.6872 2.31445 19.9905C2.48738 20.2939 2.73675 20.5468 3.03773 20.7239C3.33871 20.901 3.68082 20.9962 4.03002 21H20.97C21.3192 20.9962 21.6613 20.901 21.9623 20.7239C22.2633 20.5468 22.5127 20.2939 22.6856 19.9905C22.8585 19.6872 22.949 19.3438 22.948 18.9945C22.9471 18.6453 22.8547 18.3024 22.68 18L14.21 3.86002C14.0318 3.56613 13.7807 3.32314 13.4812 3.15451C13.1817 2.98587 12.8438 2.89728 12.5 2.89728C12.1563 2.89728 11.8184 2.98587 11.5188 3.15451C11.2193 3.32314 10.9683 3.56613 10.79 3.86002Z" stroke="#AF0404" stroke-width="2" stroke-linecap="round" stroke-linejoin="round"/>
    <path d="M12.5 9V13" stroke="#AF0404" stroke-width="2" stroke-linecap="round" stroke-linejoin="round"/>
    <path d="M12.5 17H12.51" stroke="#AF0404" stroke-width="2" stroke-linecap="round" stroke-linejoin="round"/>
</svg>
